<svg width="1600" height="1000" viewBox="0 0 1600 1000" fill="none" xmlns="http://www.w3.org/2000/svg">
  <rect width="1600" height="1000" fill="#0F0E0D"/>
  <circle cx="1194" cy="231" r="362" fill="#5A3528" fill-opacity="0.55"/>
  <circle cx="367" cy="715" r="401" fill="#1D2730" fill-opacity="0.45"/>
  <circle cx="768" cy="520" r="312" fill="#6F5434" fill-opacity="0.3"/>
  <g opacity="0.45">
    <path d="M0 130C210 160 370 50 585 85C760 113 945 222 1124 200C1308 176 1456 70 1600 88" stroke="#D1B089" stroke-width="2"/>
    <path d="M0 410C188 455 320 322 500 347C718 378 826 528 1028 530C1246 531 1421 356 1600 370" stroke="#C79C6A" stroke-width="2"/>
    <path d="M0 700C226 675 364 543 583 573C760 596 924 758 1119 754C1299 751 1457 623 1600 616" stroke="#AA8361" stroke-width="2"/>
  </g>
</svg>
